<?xml version="1.0" encoding="UTF-8" standalone="no"?>
<!-- Created with Inkscape (http://www.inkscape.org/) -->

<svg
   xmlns:dc="http://purl.org/dc/elements/1.1/"
   xmlns:cc="http://creativecommons.org/ns#"
   xmlns:rdf="http://www.w3.org/1999/02/22-rdf-syntax-ns#"
   xmlns:svg="http://www.w3.org/2000/svg"
   xmlns="http://www.w3.org/2000/svg"
   xmlns:sodipodi="http://sodipodi.sourceforge.net/DTD/sodipodi-0.dtd"
   xmlns:inkscape="http://www.inkscape.org/namespaces/inkscape"
   width="110.1"
   height="110.09717"
   id="svg3132"
   version="1.1"
   inkscape:version="0.48.4 r9939"
   sodipodi:docname="New document 8">
  <defs
     id="defs3134" />
  <sodipodi:namedview
     id="base"
     pagecolor="#ffffff"
     bordercolor="#666666"
     borderopacity="1.0"
     inkscape:pageopacity="0.0"
     inkscape:pageshadow="2"
     inkscape:zoom="0.98994949"
     inkscape:cx="26.080645"
     inkscape:cy="-34.233736"
     inkscape:document-units="px"
     inkscape:current-layer="layer1"
     showgrid="false"
     fit-margin-top="0"
     fit-margin-left="0"
     fit-margin-right="0"
     fit-margin-bottom="0"
     inkscape:window-width="1411"
     inkscape:window-height="1121"
     inkscape:window-x="445"
     inkscape:window-y="18"
     inkscape:window-maximized="0" />
  <metadata
     id="metadata3137">
    <rdf:RDF>
      <cc:Work
         rdf:about="">
        <dc:format>image/svg+xml</dc:format>
        <dc:type
           rdf:resource="http://purl.org/dc/dcmitype/StillImage" />
        <dc:title></dc:title>
      </cc:Work>
    </rdf:RDF>
  </metadata>
  <g
     inkscape:label="Layer 1"
     inkscape:groupmode="layer"
     id="layer1"
     transform="translate(-207.66424,-247.41261)">
    <path
       inkscape:connector-curvature="0"
       d="m 207.66436,294.95661 0,9.08888 33.42499,0 c -0.04,-0.52188 -0.0813,-1.04488 -0.0813,-1.57563 0,-11.99225 9.71499,-21.71637 21.69875,-21.71637 12,0 21.71749,9.72412 21.71749,21.71637 0,0.53075 -0.0413,1.05375 -0.0788,1.57563 l 33.41875,0 0,-10.1645 -16.18374,0 c -0.34751,0.61037 -0.935,-1.836 -1.74875,-4.20163 l 14.3075,-8.24762 -6.46125,-11.18913 -14.00625,8.08275 c -1.56,-1.99175 -3.30251,-3.82912 -5.2,-5.4835 l 8.25125,-14.308 -11.18875,-6.455 -8.07376,13.9825 c -2.32375,-0.94375 -4.73374,-1.66375 -7.2475,-2.1475 l 0,-16.50125 -12.925,0 0,16.17875 c -2.52999,0.3525 -4.98874,0.94125 -7.345,1.74375 l -8.25875,-14.30125 -11.195,6.47 8.09,14.00125 c -1.99,1.559 -3.82625,3.29975 -5.48375,5.202 l -14.30875,-8.26325 -6.46125,11.1905 13.9925,8.08113 c -0.9375,2.309 -1.66625,4.73875 -2.15625,7.2495 l -16.4975,-0.008"
       style="fill:#d3d2d2;fill-opacity:1;fill-rule:nonzero;stroke:none"
       id="path3128" />
    <path
       inkscape:connector-curvature="0"
       d="m 317.76364,309.96441 0,-9.087 -33.42374,0 c 0.0413,0.52012 0.0813,1.045 0.0813,1.57475 0,11.99225 -9.71499,21.71637 -21.69875,21.71637 -12.001,0 -21.71775,-9.72412 -21.71775,-21.71637 0,-0.52975 0.041,-1.05463 0.0791,-1.57475 l -33.41899,0 0,10.16362 16.18362,0 c 0.34763,-0.61037 0.935,1.836 1.75,4.20163 l -14.30812,8.24712 6.4615,11.189 14.00487,-8.08112 c 1.561,1.99075 3.30263,3.82812 5.20113,5.482 l -8.251,14.30756 11.19051,6.45509 8.07175,-13.9814 c 2.32275,0.94525 4.73587,1.6625 7.2485,2.14737 l 0,16.5015 12.92362,0 0,-16.18112 c 2.52999,-0.35163 4.9875,-0.94 7.34625,-1.74025 l 8.2575,14.29881 11.19375,-6.46972 -8.08875,-14.00147 c 1.99,-1.55712 3.82625,-3.29787 5.4825,-5.20112 l 14.31125,8.26362 6.45999,-11.19187 -13.9925,-8.08013 c 0.9375,-2.30812 1.66501,-4.73875 2.15625,-7.251 l 16.49625,0.009"
       style="fill:#75b1d9;fill-opacity:1;fill-rule:nonzero;stroke:none"
       id="path3130" />
  </g>
</svg>
