<?xml version="1.0" encoding="UTF-8" standalone="no"?>
<!-- Created with Inkscape (http://www.inkscape.org/) -->

<svg
   xmlns:dc="http://purl.org/dc/elements/1.1/"
   xmlns:cc="http://creativecommons.org/ns#"
   xmlns:rdf="http://www.w3.org/1999/02/22-rdf-syntax-ns#"
   xmlns:svg="http://www.w3.org/2000/svg"
   xmlns="http://www.w3.org/2000/svg"
   xmlns:sodipodi="http://sodipodi.sourceforge.net/DTD/sodipodi-0.dtd"
   xmlns:inkscape="http://www.inkscape.org/namespaces/inkscape"
   id="svg3084"
   version="1.1"
   inkscape:version="0.48.4 r9939"
   width="306.8"
   height="149.9625"
   xml:space="preserve"
   sodipodi:docname="logo.svg"><metadata
     id="metadata3090"><rdf:RDF><cc:Work
         rdf:about=""><dc:format>image/svg+xml</dc:format><dc:type
           rdf:resource="http://purl.org/dc/dcmitype/StillImage" /><dc:title></dc:title></cc:Work></rdf:RDF></metadata><defs
     id="defs3088"><clipPath
       clipPathUnits="userSpaceOnUse"
       id="clipPath3100"><path
         d="m 0,0 2454,0 0,1199.7 -2454,0 L 0,0 z"
         id="path3102" /></clipPath></defs><sodipodi:namedview
     pagecolor="#ffffff"
     bordercolor="#666666"
     borderopacity="1"
     objecttolerance="10"
     gridtolerance="10"
     guidetolerance="10"
     inkscape:pageopacity="0"
     inkscape:pageshadow="2"
     inkscape:window-width="1458"
     inkscape:window-height="1007"
     id="namedview3086"
     showgrid="false"
     fit-margin-top="10"
     fit-margin-left="10"
     fit-margin-right="10"
     fit-margin-bottom="10"
     inkscape:zoom="3.6310301"
     inkscape:cx="163.39999"
     inkscape:cy="84.981253"
     inkscape:window-x="37"
     inkscape:window-y="44"
     inkscape:window-maximized="0"
     inkscape:current-layer="g3098" /><g
     id="g3092"
     inkscape:groupmode="layer"
     inkscape:label="ink_ext_XXXXXX"
     transform="matrix(1.25,0,0,-1.25,0,149.9625)"><g
       id="g3094"
       transform="scale(0.1,0.1)"><g
         id="g3096"><g
           id="g3098"
           clip-path="url(#clipPath3100)"><path
             d="m 167.25,504.582 -97.2812,0 C 23.3203,504.582 0,520.754 0,553.098 l 0,88.75 c 0,31.047 19.6641,46.566 59,46.566 l 107.273,0 0,-31.449 -89.4761,0 c -12.5196,0 -21.293,-1.668 -26.3321,-4.992 -5.039,-3.336 -7.5546,-9.551 -7.5546,-18.657 l 0,-72.902 c 0,-16.25 12.0273,-24.375 36.0781,-24.375 l 88.2617,0 0,-31.457"
             style="fill:#ffffff;fill-opacity:1;fill-rule:nonzero;stroke:none"
             id="path3104" /><path
             d="m 369.121,558.469 0,74.359 c 0,8.449 -3.336,14.633 -10,18.531 -5.359,3.739 -13.652,5.606 -24.867,5.606 l -50.953,0 c -11.703,0 -20.403,-1.867 -26.09,-5.606 -6.992,-3.898 -10.481,-10.082 -10.481,-18.531 l 0,-73.871 c 0,-7.969 3.489,-13.895 10.481,-17.801 5.367,-3.41 13.004,-5.117 22.922,-5.117 l 57.051,0 c 9.586,0 16.898,1.707 21.937,5.117 6.664,3.906 10,9.668 10,17.313 z m 42.91,-8.535 c 0,-15.606 -6.992,-27.547 -20.969,-35.84 -9.914,-6.336 -24.871,-9.512 -44.863,-9.512 l -74.359,0 c -22.758,0 -39.778,4.063 -51.078,12.199 -11.297,8.125 -16.946,19.168 -16.946,33.153 l 0,91.429 c 0,15.93 7.157,28.282 21.457,37.059 10.403,6.336 25.922,9.508 46.567,9.508 l 74.359,0 c 20.641,0 35.758,-3.172 45.348,-9.508 13.656,-8.293 20.484,-20.645 20.484,-37.059 l 0,-91.429"
             style="fill:#ffffff;fill-opacity:1;fill-rule:nonzero;stroke:none"
             id="path3106" /><path
             d="m 619.512,505.07 0,116.301 c 0,18.691 -12.032,28.035 -36.082,28.035 l -47.789,0 c -24.379,0 -36.575,-9.344 -36.575,-28.035 l 0,-116.301 -42.906,0 0,127.274 c 0,37.379 21.778,56.07 65.34,56.07 l 75.578,0 c 43.234,0 64.856,-18.691 64.856,-56.07 l 0,-127.274 -42.422,0"
             style="fill:#ffffff;fill-opacity:1;fill-rule:nonzero;stroke:none"
             id="path3108" /><path
             d="m 895.738,656.477 -113.371,0 c -10.238,0 -17.879,-1.215 -22.914,-3.657 -6.992,-3.254 -10.484,-7.718 -10.484,-13.41 l 0,-7.558 c 0,-12.672 11.457,-19.012 34.375,-19.012 l 56.074,0 c 16.258,0 29.625,-3.985 40.109,-11.949 10.485,-7.961 15.727,-18.125 15.727,-30.477 l 0,-22.434 c 0,-11.699 -5.289,-22.019 -15.852,-30.957 -6.336,-5.691 -13.007,-9.187 -19.988,-10.488 -5.691,-1.297 -14.062,-1.953 -25.113,-1.953 l -128.242,0 0,31.457 116.785,0 c 12.023,0 20.07,2.352 24.133,7.07 2.925,3.575 4.39,10.079 4.39,19.5 0,12.52 -9.351,18.77 -28.039,18.77 l -52.902,0 c -17.887,0 -32.672,3.496 -44.375,10.488 -13.004,7.805 -19.504,17.961 -19.504,30.481 l 0,24.625 c 0,13.648 7.473,24.621 22.43,32.914 9.097,5.359 23.078,8.043 41.937,8.043 l 124.824,0 0,-31.453"
             style="fill:#ffffff;fill-opacity:1;fill-rule:nonzero;stroke:none"
             id="path3110" /><path
             d="m 1043.97,654.527 -54.361,0 0,-149.945 -42.91,0 0,244.543 42.91,0 0,-63.879 54.361,0 0,-30.719"
             style="fill:#ffffff;fill-opacity:1;fill-rule:nonzero;stroke:none"
             id="path3112" /><path
             d="m 1200.74,658.918 c -33.15,0 -52.41,-0.652 -57.78,-1.953 -11.38,-3.41 -17.07,-11.621 -17.07,-24.621 l 0,-126.785 -44.37,0 0,135.32 c 0,32.992 23.16,49.488 69.49,49.488 l 49.73,0 0,-31.449"
             style="fill:#ffffff;fill-opacity:1;fill-rule:nonzero;stroke:none"
             id="path3114" /><path
             d="m 1288.52,687.93 0,-113.864 c 0,-9.425 3.16,-17.148 9.5,-23.156 5.04,-4.551 14.71,-6.824 29.02,-6.824 l 45.84,0 c 25.35,0 38.02,9.668 38.02,29.012 l 0,114.832 42.91,0 0,-125.321 c 0,-38.679 -22.43,-58.027 -67.28,-58.027 l -73.63,0 c -44.87,0 -67.29,19.348 -67.29,58.027 l 0,125.321 42.91,0"
             style="fill:#ffffff;fill-opacity:1;fill-rule:nonzero;stroke:none"
             id="path3116" /><path
             d="m 1673.98,504.582 -97.29,0 c -46.65,0 -69.97,16.172 -69.97,48.516 l 0,88.75 c 0,31.047 19.67,46.566 59.01,46.566 l 107.27,0 0,-31.449 -89.48,0 c -12.52,0 -21.29,-1.668 -26.33,-4.992 -5.04,-3.336 -7.56,-9.551 -7.56,-18.657 l 0,-72.902 c 0,-16.25 12.04,-24.375 36.09,-24.375 l 88.26,0 0,-31.457"
             style="fill:#ffffff;fill-opacity:1;fill-rule:nonzero;stroke:none"
             id="path3118" /><path
             d="m 1813.19,654.527 -54.37,0 0,-149.945 -42.91,0 0,244.543 42.91,0 0,-63.879 54.37,0 0,-30.719"
             style="fill:#ffffff;fill-opacity:1;fill-rule:nonzero;stroke:none"
             id="path3120" /><path
             d="m 2022.62,558.469 0,74.359 c 0,8.449 -3.34,14.633 -10,18.531 -5.36,3.739 -13.65,5.606 -24.87,5.606 l -50.95,0 c -11.71,0 -20.4,-1.867 -26.09,-5.606 -6.99,-3.898 -10.48,-10.082 -10.48,-18.531 l 0,-73.871 c 0,-7.969 3.49,-13.895 10.48,-17.801 5.37,-3.41 13.01,-5.117 22.92,-5.117 l 57.05,0 c 9.59,0 16.9,1.707 21.94,5.117 6.66,3.906 10,9.668 10,17.313 z m 42.91,-8.535 c 0,-15.606 -6.99,-27.547 -20.96,-35.84 -9.93,-6.336 -24.88,-9.512 -44.87,-9.512 l -74.36,0 c -22.76,0 -39.78,4.063 -51.08,12.199 -11.3,8.125 -16.94,19.168 -16.94,33.153 l 0,91.429 c 0,15.93 7.15,28.282 21.45,37.059 10.4,6.336 25.92,9.508 46.57,9.508 l 74.36,0 c 20.64,0 35.75,-3.172 45.34,-9.508 13.67,-8.293 20.49,-20.645 20.49,-37.059 l 0,-91.429"
             style="fill:#ffffff;fill-opacity:1;fill-rule:nonzero;stroke:none"
             id="path3122" /><path
             d="m 2227.41,658.918 c -33.16,0 -52.41,-0.652 -57.78,-1.953 -11.38,-3.41 -17.07,-11.621 -17.07,-24.621 l 0,-126.785 -44.37,0 0,135.32 c 0,32.992 23.16,49.488 69.48,49.488 l 49.74,0 0,-31.449"
             style="fill:#ffffff;fill-opacity:1;fill-rule:nonzero;stroke:none"
             id="path3124" /><path
             d="m 2454.39,656.477 -113.37,0 c -10.23,0 -17.88,-1.215 -22.91,-3.657 -6.99,-3.254 -10.49,-7.718 -10.49,-13.41 l 0,-7.558 c 0,-12.672 11.46,-19.012 34.38,-19.012 l 56.07,0 c 16.26,0 29.63,-3.985 40.11,-11.949 10.49,-7.961 15.73,-18.125 15.73,-30.477 l 0,-22.434 c 0,-11.699 -5.29,-22.019 -15.85,-30.957 -6.34,-5.691 -13.01,-9.187 -19.99,-10.488 -5.69,-1.297 -14.06,-1.953 -25.12,-1.953 l -128.24,0 0,31.457 116.79,0 c 12.02,0 20.07,2.352 24.13,7.07 2.93,3.575 4.39,10.079 4.39,19.5 0,12.52 -9.35,18.77 -28.03,18.77 l -52.91,0 c -17.88,0 -32.67,3.496 -44.38,10.488 -13,7.805 -19.5,17.961 -19.5,30.481 l 0,24.625 c 0,13.648 7.47,24.621 22.43,32.914 9.1,5.359 23.08,8.043 41.94,8.043 l 124.82,0 0,-31.453"
             style="fill:#ffffff;fill-opacity:1;fill-rule:nonzero;stroke:none"
             id="path3126" /><path
             d="m 1244.61,819.348 0,-72.711 267.4,0 c -0.32,4.175 -0.65,8.359 -0.65,12.605 0,95.938 77.72,173.731 173.59,173.731 96,0 173.74,-77.793 173.74,-173.731 0,-4.246 -0.33,-8.43 -0.63,-12.605 l 267.35,0 0,81.316 -129.47,0 c -2.78,-4.883 -7.48,14.688 -13.99,33.613 l 114.46,65.981 -51.69,89.513 -112.05,-64.662 c -12.48,15.934 -26.42,30.633 -41.6,43.868 l 66.01,114.464 -89.51,51.64 -64.59,-111.86 c -18.59,7.55 -37.87,13.31 -57.98,17.18 l 0,132.01 -103.4,0 0,-129.43 c -20.24,-2.82 -39.91,-7.53 -58.76,-13.95 l -66.07,114.41 -89.56,-51.76 64.72,-112.01 c -15.92,-12.472 -30.61,-26.398 -43.87,-41.616 l -114.47,66.106 -51.69,-89.524 111.94,-64.649 c -7.5,-18.472 -13.33,-37.91 -17.25,-57.996 l -131.98,0.067"
             style="fill:#d3d2d2;fill-opacity:1;fill-rule:nonzero;stroke:none"
             id="path3128" /><path
             d="m 1452.24,380.363 0,72.696 -267.39,0 c 0.33,-4.161 0.65,-8.36 0.65,-12.598 0,-95.938 -77.72,-173.731 -173.59,-173.731 -96.008,0 -173.742,77.793 -173.742,173.731 0,4.238 0.328,8.437 0.633,12.598 l -267.352,0 0,-81.309 129.469,0 c 2.781,4.883 7.48,-14.688 14,-33.613 l -114.465,-65.977 51.692,-89.512 112.039,64.649 c 12.488,-15.926 26.421,-30.625 41.609,-43.856 L 739.785,88.9805 829.309,37.3398 893.883,149.191 c 18.582,-7.562 37.887,-13.3 57.988,-17.179 l 0,-132.012 103.389,0 0,129.449 c 20.24,2.813 39.9,7.52 58.77,13.922 l 66.06,-114.3905 89.55,51.7578 -64.71,112.0117 c 15.92,12.457 30.61,26.383 43.86,41.609 l 114.49,-66.109 51.68,89.535 -111.94,64.641 c 7.5,18.465 13.32,37.91 17.25,58.008 l 131.97,-0.071"
             style="fill:#75b1d9;fill-opacity:1;fill-rule:nonzero;stroke:none"
             id="path3130" /></g></g></g></g></svg>