<?xml version="1.0" encoding="UTF-8" standalone="no"?>
<!-- Created with Inkscape (http://www.inkscape.org/) -->

<svg
   xmlns:dc="http://purl.org/dc/elements/1.1/"
   xmlns:cc="http://creativecommons.org/ns#"
   xmlns:rdf="http://www.w3.org/1999/02/22-rdf-syntax-ns#"
   xmlns:svg="http://www.w3.org/2000/svg"
   xmlns="http://www.w3.org/2000/svg"
   xmlns:sodipodi="http://sodipodi.sourceforge.net/DTD/sodipodi-0.dtd"
   xmlns:inkscape="http://www.inkscape.org/namespaces/inkscape"
   width="373.26804"
   height="57.064163"
   id="svg3259"
   version="1.1"
   inkscape:version="0.48.4 r9939"
   sodipodi:docname="New document 14">
  <defs
     id="defs3261" />
  <sodipodi:namedview
     id="base"
     pagecolor="#ffffff"
     bordercolor="#666666"
     borderopacity="1.0"
     inkscape:pageopacity="0.0"
     inkscape:pageshadow="2"
     inkscape:zoom="1.4"
     inkscape:cx="119.75925"
     inkscape:cy="47.368229"
     inkscape:document-units="px"
     inkscape:current-layer="layer1"
     showgrid="false"
     fit-margin-top="0"
     fit-margin-left="0"
     fit-margin-right="0"
     fit-margin-bottom="0"
     inkscape:window-width="1313"
     inkscape:window-height="1067"
     inkscape:window-x="445"
     inkscape:window-y="63"
     inkscape:window-maximized="0" />
  <metadata
     id="metadata3264">
    <rdf:RDF>
      <cc:Work
         rdf:about="">
        <dc:format>image/svg+xml</dc:format>
        <dc:type
           rdf:resource="http://purl.org/dc/dcmitype/StillImage" />
        <dc:title></dc:title>
      </cc:Work>
    </rdf:RDF>
  </metadata>
  <g
     inkscape:label="Layer 1"
     inkscape:groupmode="layer"
     id="layer1"
     transform="translate(-194.41706,-351.32105)">
    <g
       id="g3347"
       transform="translate(0,1.7766579)">
      <path
         id="path3104"
         style="fill:#918f90;fill-opacity:1;fill-rule:nonzero;stroke:none"
         d="m 281.79259,393.36041 -12.16015,0 c -5.83106,0 -8.7461,-2.0215 -8.7461,-6.0645 l 0,-11.09375 c 0,-3.88088 2.45801,-5.82075 7.375,-5.82075 l 13.40912,0 0,3.93112 -11.18451,0 c -1.56495,0 -2.66162,0.2085 -3.29151,0.624 -0.62988,0.417 -0.94433,1.19388 -0.94433,2.33213 l 0,9.11275 c 0,2.03125 1.50342,3.04687 4.50977,3.04687 l 11.03271,0 0,3.93213"
         inkscape:connector-curvature="0" />
      <path
         id="path3106"
         style="fill:#918f90;fill-opacity:1;fill-rule:nonzero;stroke:none"
         d="m 307.02646,386.62453 0,-9.29487 c 0,-1.05613 -0.417,-1.82913 -1.25,-2.31638 -0.66987,-0.46737 -1.7065,-0.70075 -3.10837,-0.70075 l -6.36913,0 c -1.46287,0 -2.55037,0.23338 -3.26125,0.70075 -0.874,0.48725 -1.31012,1.26025 -1.31012,2.31638 l 0,9.23387 c 0,0.99613 0.43612,1.73688 1.31012,2.22513 0.67088,0.42625 1.6255,0.63962 2.86525,0.63962 l 7.13138,0 c 1.19825,0 2.11225,-0.21337 2.74212,-0.63962 0.833,-0.48825 1.25,-1.2085 1.25,-2.16413 z m 5.36375,1.06688 c 0,1.95075 -0.874,3.44337 -2.62112,4.48 -1.23925,0.792 -3.10888,1.189 -5.60788,1.189 l -9.29487,0 c -2.84475,0 -4.97225,-0.50788 -6.38475,-1.52488 -1.41213,-1.01562 -2.11825,-2.396 -2.11825,-4.14412 l 0,-11.42863 c 0,-1.99125 0.89462,-3.53525 2.68212,-4.63237 1.30038,-0.792 3.24025,-1.1885 5.82088,-1.1885 l 9.29487,0 c 2.58013,0 4.46975,0.3965 5.6685,1.1885 1.707,1.03662 2.5605,2.58062 2.5605,4.63237 l 0,11.42863"
         inkscape:connector-curvature="0" />
      <path
         id="path3108"
         style="fill:#918f90;fill-opacity:1;fill-rule:nonzero;stroke:none"
         d="m 338.32534,393.29941 0,-14.53763 c 0,-2.33637 -1.504,-3.50437 -4.51025,-3.50437 l -5.97363,0 c -3.04737,0 -4.57187,1.168 -4.57187,3.50437 l 0,14.53763 -5.36325,0 0,-15.90925 c 0,-4.67238 2.72225,-7.00875 8.1675,-7.00875 l 9.44725,0 c 5.40425,0 8.107,2.33637 8.107,7.00875 l 0,15.90925 -5.30275,0"
         inkscape:connector-curvature="0" />
      <path
         id="path3110"
         style="fill:#918f90;fill-opacity:1;fill-rule:nonzero;stroke:none"
         d="m 372.85359,374.37353 -14.17138,0 c -1.27975,0 -2.23487,0.15188 -2.86425,0.45713 -0.874,0.40675 -1.3105,0.96475 -1.3105,1.67625 l 0,0.94475 c 0,1.584 1.43213,2.3765 4.29688,2.3765 l 7.00925,0 c 2.03225,0 3.70313,0.49812 5.01363,1.49362 1.31062,0.99513 1.96587,2.26563 1.96587,3.80963 l 0,2.80425 c 0,1.46237 -0.66112,2.75237 -1.9815,3.86962 -0.792,0.71138 -1.62587,1.14838 -2.4985,1.311 -0.71138,0.16213 -1.75775,0.24413 -3.13913,0.24413 l -16.03025,0 0,-3.93213 14.59813,0 c 1.50287,0 2.50875,-0.294 3.01662,-0.88375 0.36563,-0.44687 0.54875,-1.25987 0.54875,-2.4375 0,-1.565 -1.16887,-2.34625 -3.50487,-2.34625 l -6.61275,0 c -2.23588,0 -4.084,-0.437 -5.54688,-1.311 -1.6255,-0.97562 -2.438,-2.24512 -2.438,-3.81012 l 0,-3.07813 c 0,-1.706 0.93413,-3.07762 2.80375,-4.11425 1.13713,-0.66987 2.88475,-1.00537 5.24213,-1.00537 l 15.603,0 0,3.93162"
         inkscape:connector-curvature="0" />
      <path
         id="path3112"
         style="fill:#918f90;fill-opacity:1;fill-rule:nonzero;stroke:none"
         d="m 391.38259,374.61728 -6.79512,0 0,18.74313 -5.36375,0 0,-30.56788 5.36375,0 0,7.98488 6.79512,0 0,3.83987"
         inkscape:connector-curvature="0" />
      <path
         id="path3114"
         style="fill:#918f90;fill-opacity:1;fill-rule:nonzero;stroke:none"
         d="m 410.97884,374.06841 c -4.14375,0 -6.55125,0.0815 -7.2225,0.24412 -1.4225,0.42625 -2.13375,1.45263 -2.13375,3.07763 l 0,15.84812 -5.54625,0 0,-16.915 c 0,-4.124 2.895,-6.186 8.68625,-6.186 l 6.21625,0 0,3.93113"
         inkscape:connector-curvature="0" />
      <path
         id="path3116"
         style="fill:#918f90;fill-opacity:1;fill-rule:nonzero;stroke:none"
         d="m 421.95134,370.44191 0,14.233 c 0,1.17812 0.395,2.1435 1.1875,2.8945 0.63,0.56887 1.83875,0.853 3.6275,0.853 l 5.73,0 c 3.16875,0 4.7525,-1.2085 4.7525,-3.6265 l 0,-14.354 5.36375,0 0,15.66512 c 0,4.83488 -2.80375,7.25338 -8.41,7.25338 l -9.20375,0 c -5.60875,0 -8.41125,-2.4185 -8.41125,-7.25338 l 0,-15.66512 5.36375,0"
         inkscape:connector-curvature="0" />
      <path
         id="path3118"
         style="fill:#918f90;fill-opacity:1;fill-rule:nonzero;stroke:none"
         d="m 470.13384,393.36041 -12.16125,0 c -5.83125,0 -8.74625,-2.0215 -8.74625,-6.0645 l 0,-11.09375 c 0,-3.88088 2.45875,-5.82075 7.37625,-5.82075 l 13.40875,0 0,3.93112 -11.185,0 c -1.565,0 -2.66125,0.2085 -3.29125,0.624 -0.63,0.417 -0.945,1.19388 -0.945,2.33213 l 0,9.11275 c 0,2.03125 1.505,3.04687 4.51125,3.04687 l 11.0325,0 0,3.93213"
         inkscape:connector-curvature="0" />
      <path
         id="path3120"
         style="fill:#918f90;fill-opacity:1;fill-rule:nonzero;stroke:none"
         d="m 487.53509,374.61728 -6.79625,0 0,18.74313 -5.36375,0 0,-30.56788 5.36375,0 0,7.98488 6.79625,0 0,3.83987"
         inkscape:connector-curvature="0" />
      <path
         id="path3122"
         style="fill:#918f90;fill-opacity:1;fill-rule:nonzero;stroke:none"
         d="m 513.71384,386.62453 0,-9.29487 c 0,-1.05613 -0.4175,-1.82913 -1.25,-2.31638 -0.67,-0.46737 -1.70625,-0.70075 -3.10875,-0.70075 l -6.36875,0 c -1.46375,0 -2.55,0.23338 -3.26125,0.70075 -0.87375,0.48725 -1.31,1.26025 -1.31,2.31638 l 0,9.23387 c 0,0.99613 0.43625,1.73688 1.31,2.22513 0.67125,0.42625 1.62625,0.63962 2.865,0.63962 l 7.13125,0 c 1.19875,0 2.1125,-0.21337 2.7425,-0.63962 0.8325,-0.48825 1.25,-1.2085 1.25,-2.16413 z m 5.36375,1.06688 c 0,1.95075 -0.87375,3.44337 -2.62,4.48 -1.24125,0.792 -3.11,1.189 -5.60875,1.189 l -9.295,0 c -2.845,0 -4.9725,-0.50788 -6.385,-1.52488 -1.4125,-1.01562 -2.1175,-2.396 -2.1175,-4.14412 l 0,-11.42863 c 0,-1.99125 0.89375,-3.53525 2.68125,-4.63237 1.3,-0.792 3.24,-1.1885 5.82125,-1.1885 l 9.295,0 c 2.58,0 4.46875,0.3965 5.6675,1.1885 1.70875,1.03662 2.56125,2.58062 2.56125,4.63237 l 0,11.42863"
         inkscape:connector-curvature="0" />
      <path
         id="path3124"
         style="fill:#918f90;fill-opacity:1;fill-rule:nonzero;stroke:none"
         d="m 539.31259,374.06841 c -4.145,0 -6.55125,0.0815 -7.2225,0.24412 -1.4225,0.42625 -2.13375,1.45263 -2.13375,3.07763 l 0,15.84812 -5.54625,0 0,-16.915 c 0,-4.124 2.895,-6.186 8.685,-6.186 l 6.2175,0 0,3.93113"
         inkscape:connector-curvature="0" />
      <path
         id="path3126"
         style="fill:#918f90;fill-opacity:1;fill-rule:nonzero;stroke:none"
         d="m 567.68509,374.37353 -14.17125,0 c -1.27875,0 -2.235,0.15188 -2.86375,0.45713 -0.87375,0.40675 -1.31125,0.96475 -1.31125,1.67625 l 0,0.94475 c 0,1.584 1.4325,2.3765 4.2975,2.3765 l 7.00875,0 c 2.0325,0 3.70375,0.49812 5.01375,1.49362 1.31125,0.99513 1.96625,2.26563 1.96625,3.80963 l 0,2.80425 c 0,1.46237 -0.66125,2.75237 -1.98125,3.86962 -0.7925,0.71138 -1.62625,1.14838 -2.49875,1.311 -0.71125,0.16213 -1.7575,0.24413 -3.14,0.24413 l -16.03,0 0,-3.93213 14.59875,0 c 1.5025,0 2.50875,-0.294 3.01625,-0.88375 0.36625,-0.44687 0.54875,-1.25987 0.54875,-2.4375 0,-1.565 -1.16875,-2.34625 -3.50375,-2.34625 l -6.61375,0 c -2.235,0 -4.08375,-0.437 -5.5475,-1.311 -1.625,-0.97562 -2.4375,-2.24512 -2.4375,-3.81012 l 0,-3.07813 c 0,-1.706 0.93375,-3.07762 2.80375,-4.11425 1.1375,-0.66987 2.885,-1.00537 5.2425,-1.00537 l 15.6025,0 0,3.93162"
         inkscape:connector-curvature="0" />
    </g>
    <g
       id="g3382"
       transform="matrix(0.51830725,0,0,0.51830725,52.52804,149.07138)">
      <path
         id="path3128"
         style="fill:#d3d2d2;fill-opacity:1;fill-rule:nonzero;stroke:none"
         d="m 273.75477,437.75592 0,9.08888 33.42499,0 c -0.04,-0.52188 -0.0813,-1.04488 -0.0813,-1.57563 0,-11.99225 9.71499,-21.71637 21.69875,-21.71637 12,0 21.71749,9.72412 21.71749,21.71637 0,0.53075 -0.0413,1.05375 -0.0788,1.57563 l 33.41875,0 0,-10.1645 -16.18374,0 c -0.34751,0.61037 -0.935,-1.836 -1.74875,-4.20163 l 14.3075,-8.24762 -6.46125,-11.18913 -14.00625,8.08275 c -1.56,-1.99175 -3.30251,-3.82912 -5.2,-5.4835 l 8.25125,-14.308 -11.18875,-6.455 -8.07376,13.9825 c -2.32375,-0.94375 -4.73374,-1.66375 -7.2475,-2.1475 l 0,-16.50125 -12.925,0 0,16.17875 c -2.52999,0.3525 -4.98874,0.94125 -7.345,1.74375 l -8.25875,-14.30125 -11.195,6.47 8.09,14.00125 c -1.99,1.559 -3.82625,3.29975 -5.48375,5.202 l -14.30875,-8.26325 -6.46125,11.1905 13.9925,8.08113 c -0.9375,2.309 -1.66625,4.73875 -2.15625,7.2495 l -16.4975,-0.008"
         inkscape:connector-curvature="0" />
      <path
         id="path3130"
         style="fill:#75b1d9;fill-opacity:1;fill-rule:nonzero;stroke:none"
         d="m 383.85405,452.76372 0,-9.087 -33.42374,0 c 0.0413,0.52012 0.0813,1.045 0.0813,1.57475 0,11.99225 -9.71499,21.71637 -21.69875,21.71637 -12.001,0 -21.71775,-9.72412 -21.71775,-21.71637 0,-0.52975 0.041,-1.05463 0.0791,-1.57475 l -33.41899,0 0,10.16362 16.18362,0 c 0.34763,-0.61037 0.935,1.836 1.75,4.20163 l -14.30812,8.24712 6.4615,11.189 14.00487,-8.08112 c 1.561,1.99075 3.30263,3.82812 5.20113,5.482 l -8.251,14.30756 11.19051,6.45509 8.07175,-13.9814 c 2.32275,0.94525 4.73587,1.6625 7.2485,2.14737 l 0,16.5015 12.92362,0 0,-16.18112 c 2.52999,-0.35163 4.9875,-0.94 7.34625,-1.74025 l 8.2575,14.29881 11.19375,-6.46972 -8.08875,-14.00147 c 1.99,-1.55712 3.82625,-3.29787 5.4825,-5.20112 l 14.31125,8.26362 6.45999,-11.19187 -13.9925,-8.08013 c 0.9375,-2.30812 1.66501,-4.73875 2.15625,-7.251 l 16.49625,0.009"
         inkscape:connector-curvature="0" />
    </g>
  </g>
</svg>
